<svg xmlns="http://www.w3.org/2000/svg" viewBox="0 0 553.63 101.75"><defs><style>.cls-1{fill:none;stroke:#fff;stroke-miterlimit:10;stroke-width:1.5px;}</style></defs><title>Asset 130x</title><g id="Layer_2" data-name="Layer 2"><g id="Layer_1-2" data-name="Layer 1"><g id="Layer_2-2" data-name="Layer 2"><polygon class="cls-1" points="64.49 13.99 64.49 0.75 14.67 0.75 7.51 0.75 0.75 0.75 0.75 99.98 7.51 99.98 14.67 99.98 64.49 99.98 64.49 86.74 14.67 86.74 14.67 57.33 56.98 57.33 56.98 44.09 14.67 44.09 14.67 13.99 64.49 13.99"/><path class="cls-1" d="M95.21,99.77a42.38,42.38,0,0,1-10.27-3.68A40.56,40.56,0,0,1,76.14,90L84.4,79.78a46.52,46.52,0,0,0,11.39,6.55A30.9,30.9,0,0,0,107,88.51q8.25,0,12.38-2.55a8.44,8.44,0,0,0,4.13-7.68,6,6,0,0,0-2.25-5.12,12.73,12.73,0,0,0-5.6-2.29c-2.23-.38-5.37-.74-9.41-1.06l-1.16,0c-.41,0-.8-.06-1.17-.1a3.27,3.27,0,0,1-.54,0,5.07,5.07,0,0,0-.55,0,54.88,54.88,0,0,1-11.67-2,15.88,15.88,0,0,1-8-5.5Q80,58.08,80,50.57T83.1,38.08a18.69,18.69,0,0,1,9.15-7.47c4-1.66,9.12-2.49,15.21-2.49a52.89,52.89,0,0,1,10.55,1,46.78,46.78,0,0,1,18.39,8.12L128,47.43a47,47,0,0,0-10.48-5.12,31.86,31.86,0,0,0-10.07-1.7q-7.09,0-10.64,2.42a8.2,8.2,0,0,0-3.55,7.27,4.94,4.94,0,0,0,2,4.3,11.85,11.85,0,0,0,5.09,1.91q3.06.48,8.73.82a5.87,5.87,0,0,0,.85.06,7.56,7.56,0,0,1,.93.07h.41a1.53,1.53,0,0,1,.41.07,60.57,60.57,0,0,1,12.65,2,17,17,0,0,1,8.77,5.94q3.56,4.44,3.55,12.83,0,7.64-3.27,12.66a19.8,19.8,0,0,1-9.86,7.54Q116.94,101,107,101A53.9,53.9,0,0,1,95.21,99.77Z"/><path class="cls-1" d="M166.71,99.77a42.38,42.38,0,0,1-10.27-3.68,40.56,40.56,0,0,1-8.8-6.14l8.26-10.17a46.52,46.52,0,0,0,11.39,6.55,30.9,30.9,0,0,0,11.2,2.18q8.25,0,12.38-2.55A8.46,8.46,0,0,0,195,78.28a6,6,0,0,0-2.25-5.12,12.73,12.73,0,0,0-5.6-2.29c-2.23-.38-5.37-.74-9.42-1.06l-1.16,0c-.41,0-.79-.06-1.16-.1a3.27,3.27,0,0,1-.54,0,5.07,5.07,0,0,0-.55,0,54.88,54.88,0,0,1-11.67-2,15.88,15.88,0,0,1-8-5.5q-3.16-4-3.17-11.53t3.07-12.49a18.67,18.67,0,0,1,9.14-7.47q6.07-2.49,15.22-2.49a52.89,52.89,0,0,1,10.55,1,46.78,46.78,0,0,1,18.39,8.12l-8.39,10.17A47.22,47.22,0,0,0,189,42.31,31.86,31.86,0,0,0,179,40.61q-7.1,0-10.64,2.42a8.2,8.2,0,0,0-3.55,7.27,4.94,4.94,0,0,0,2,4.3,11.85,11.85,0,0,0,5.09,1.91q3.06.48,8.73.82a5.87,5.87,0,0,0,.85.06,7.26,7.26,0,0,1,.92.07h.41a1.41,1.41,0,0,1,.41.07,60.57,60.57,0,0,1,12.66,2,17,17,0,0,1,8.77,5.94q3.56,4.44,3.55,12.83,0,7.64-3.27,12.66A19.8,19.8,0,0,1,195,98.48q-6.6,2.52-16.55,2.52A53.83,53.83,0,0,1,166.71,99.77Z"/><path class="cls-1" d="M280.76,65.52q0-11.74-3.31-20.14a27.59,27.59,0,0,0-9.58-12.83,25.65,25.65,0,0,0-15.16-4.43A31.45,31.45,0,0,0,236.61,32a25.09,25.09,0,0,0-10.2,11.33q-3.53,7.42-3.52,17.94v8q0,10.1,3.65,17.23a24.66,24.66,0,0,0,10.61,10.82q7,3.68,16.79,3.68a33.62,33.62,0,0,0,13.17-2.76,38.56,38.56,0,0,0,11.81-7.81l-9.14-9.15a24.36,24.36,0,0,1-7.44,4.78,22,22,0,0,1-8.4,1.7q-8.53,0-13.17-4.71c-3-3-4.51-7.33-4.62-12.89h44.61ZM236.18,59c.22-5.56,1.64-9.94,4.28-13.1q4.33-5.19,12.25-5.19a12.56,12.56,0,0,1,10.34,4.82c2.57,3.2,4.06,7.7,4.47,13.47Z"/><path class="cls-1" d="M349.5,35.66q-6.31-7.54-17.85-7.54A20.81,20.81,0,0,0,320,31.6a24.05,24.05,0,0,0-7.13,7.4V29.14H298.89V100h13.93V55.14c0-4.37,1.24-7.75,3.72-10.17s6-3.61,10.54-3.61,8.33,1.36,10.92,4.09,3.89,6.6,3.89,11.6V100h13.92V57Q355.81,43.2,349.5,35.66Z"/><path class="cls-1" d="M402.47,41.7V29.14H391.75V8.53H377.83V29.14h-7.3V41.7h7.3V81.55q0,9.28,4,14t12.59,4.74h8.05V87.08h-6.69a3.46,3.46,0,0,1-3-1.4,6.68,6.68,0,0,1-1-4v-40Z"/><path class="cls-1" d="M420.6.75h13.92V14.67H420.6Zm0,28.39h13.92V100H420.6Z"/><path class="cls-1" d="M504.66,40.23a21.62,21.62,0,0,0-9.56-9A33.72,33.72,0,0,0,480,28.12a38.25,38.25,0,0,0-14.64,2.69,26.57,26.57,0,0,0-10.61,7.54l10.17,7a24.57,24.57,0,0,1,7.2-3.61,26.89,26.89,0,0,1,8.29-1.3q6.82,0,10.54,3.86t3.72,10.81v3H475.17q-12,0-17.95,5.25T451.29,79.1q0,11.06,6.48,16.48T477.36,101a31.53,31.53,0,0,0,8-.92,19.65,19.65,0,0,0,6.25-2.76,15.92,15.92,0,0,0,3.1-2.82V100h13.24V54.46A29,29,0,0,0,504.66,40.23ZM490.77,88q-3.93,1.71-11.91,1.7-7.31,0-10.89-2.59c-2.38-1.73-3.58-4.39-3.58-8q0-5,2.7-7.41t8.15-2.42h19.45V82.64C494.69,85.06,493.38,86.83,490.77,88Z"/><path class="cls-1" d="M542,81.69a6.22,6.22,0,0,0,1.13,4,3.82,3.82,0,0,0,3.17,1.4h6.55v13.24h-8.19q-7.91,0-12.25-4.91t-4.33-13.86V.75H542Z"/></g></g></g></svg>