<svg xmlns="http://www.w3.org/2000/svg" viewBox="0 0 731.69 533.32"><defs><style>.cls-1{opacity:0.4;}.cls-2{fill:#fff;}</style></defs><title>buttersvg0x</title><g id="Layer_2" data-name="Layer 2"><g id="Layer_1-2" data-name="Layer 1"><g class="cls-1"><path class="cls-2" d="M104.45,123.69c1-1.87,2.06-3.69,3.23-5.45.39-.59.79-1.17,1.19-1.74s2.54-3.12.48-.68a100.14,100.14,0,0,1,8-8.57c1.45-1.36,2.94-2.67,4.47-4l2.11-1.73c2.81-2.35-2.16,1.57.78-.63q4.91-3.64,10-7c14.36-9.56,29.18-18.55,44.12-27.19a435.81,435.81,0,0,1,46.63-23.78c-2.65,1.13,1-.42,1.29-.53,1.11-.45,2.23-.9,3.36-1.34q2.79-1.11,5.62-2.15,6.17-2.28,12.46-4.23a204.27,204.27,0,0,1,25.34-6.16q2.91-.51,5.83-.92c-3.16.44.74-.07,1.15-.11,1.17-.13,2.35-.25,3.52-.36q6.48-.59,13-.65,6,0,11.9.37c2.4.17,4.79.42,7.18.68.49.05,2.55.41.11,0,1.65.27,3.3.51,4.94.81a177.12,177.12,0,0,1,26.39,7.07q5.86,2,11.62,4.39c.19.08,4,1.66,1.41.57l2.29,1q3.7,1.62,7.38,3.31c17,7.85,33.67,16.6,50.41,25.05l53.27,26.9c14.38,7.26,28.84,14.4,42.7,22.64,6.41,3.81,12.69,7.85,18.72,12.24l2.48,1.83c2.78,2.06-2.14-1.75.54.42,1.3,1.06,2.62,2.11,3.91,3.2,2.79,2.37,5.5,4.83,8.09,7.41a107,107,0,0,1,7.26,7.95c.16.19,1.2,1.51,1.22,1.5l-.89-1.16c.39.51.78,1,1.16,1.55q1.7,2.32,3.24,4.76a80.25,80.25,0,0,1,4.87,8.8,14.35,14.35,0,0,1,1,2.19c-.9-3.31-.15-.31.12.4q1.11,3,2,6c.54,1.93,1,3.89,1.41,5.86.24,1.18.44,2.36.65,3.55.45,2.6.09.57,0,0a128.87,128.87,0,0,1,.84,14.43c0,8.75-.57,17.49-1.07,26.22-1,17.84-1.28,36.3,4.59,53.43C582,295.14,590.9,308.64,602,320.29c21.82,22.95,50,37.22,77.41,52.13,3.5,1.9,7,3.89,10.29,6.1.71.48,5,3.63,2.51,1.67a58.3,58.3,0,0,1,4.75,4.13c1.24,1.21,2.38,2.51,3.52,3.81-2.11-2.41.06.12.4.63.53.8,1,1.61,1.51,2.45.3.52.58,1.06.86,1.6l.39.81c.59,1.32.49,1.09-.3-.71.55.08,1.41,4.6,1.51,5l.17.86c.2,1.16.21,1.14,0-.05l-.11-.9c.07.58.13,1.16.17,1.74a39.79,39.79,0,0,1,.09,4.37c0,.88-.12,1.75-.18,2.63-.19,3.09.68-3.05,0,0-.39,1.75-.73,3.5-1.25,5.23-.32,1.1-.69,3.55-1.49,4.3l.63-1.47c-.24.56-.5,1.12-.77,1.68s-.54,1.11-.82,1.66c-.79,1.53-1.65,3-2.57,4.46-.42.67-.85,1.33-1.3,2s-.73,1-1.1,1.55q-1.3,1.74.33-.43c-1,2.53-4.55,5.14-6.57,7-.71.65-1.45,1.27-2.17,1.9-1.78,1.58.14,0,.42-.27a33.83,33.83,0,0,1-5.19,3.52c-1.7,1-3.45,2-5.23,2.89l-2,1c-.38.18-3.84,1.64-1,.48A101.68,101.68,0,0,1,663.1,446c-4.06,1.08-8.18,1.86-12.33,2.55-2.56.43-.4.08.11,0-1.15.15-2.3.28-3.45.4q-3.48.36-7,.58a227.86,227.86,0,0,1-25.74,0c-19-1-37.9-3.63-56.94-4.23-18.11-.56-36.34,1-53.77,6.17-30,8.83-56.81,25.55-84.8,39.07q-4.59,2.22-9.23,4.29c-.92.42-1.85.82-2.78,1.22-2.23,1,0,0,.4-.16-2,.91-4,1.65-6,2.42a154.11,154.11,0,0,1-20.19,6.26c-1.89.43-3.79.83-5.71,1.17-1,.19-5.93,1.34-2.22.41-3.35.84-7.24.72-10.68.79a93.81,93.81,0,0,1-10.86-.42,11.31,11.31,0,0,1-2-.21c3.21,1,.38.05-.49-.1-2.12-.34-4.24-.77-6.34-1.27a102.81,102.81,0,0,1-10.71-3.19c-1.83-.65-3.63-1.39-5.45-2.08,2.6,1,.8.35.24.1-1.29-.58-2.59-1.15-3.87-1.76-7.1-3.32-14-7.14-20.77-11-14.07-8.07-28-16.23-43.13-22.19-34.86-13.71-72-6.67-108.32-8.52-2.8-.14-5.59-.35-8.38-.61-1.56-.15-3.11-.32-4.67-.5a14.1,14.1,0,0,0-2.13-.27c3.9-.12.4.05-.74-.13q-9.32-1.41-18.48-3.63T98.4,445.79q-4.59-1.55-9.11-3.31c-1.09-.43-3.28-.85-4.06-1.64l1.56.66-1.6-.69-2.38-1.06a171.88,171.88,0,0,1-16.66-8.66c-2.49-1.48-5-3-7.35-4.66q-1.86-1.26-3.67-2.58c-.44-.31-.87-.63-1.3-1-3-2.21,1.3,1.1-.49-.36a115,115,0,0,1-12.45-11.62c-.84-.92-1.66-1.86-2.45-2.82-.4-.48-.77-1-1.17-1.44-1.17-1.34,2,2.77.5.65s-3.19-4.53-4.59-6.94c-1.25-2.15-2.17-4.48-3.39-6.63,2.12,3.75.18.42-.24-.74-.47-1.31-.9-2.65-1.29-4-.71-2.5-1.1-5-1.6-7.55.89,4.48.11.51,0-.71-.09-1.44-.13-2.88-.12-4.33q0-1.83.15-3.66c.06-.74.14-1.48.21-2.22.25-2.8-.59,3.32-.07.53a83.25,83.25,0,0,1,1.93-8.41c.4-1.32.83-2.62,1.29-3.91.29-.8.6-1.58.9-2.37,1-2.72-1.06,2.08-.17.38,1.63-3.1,3-6.29,4.79-9.32A199.6,199.6,0,0,1,49,328.05q1.66-2.21,3.36-4.39c2.16-2.83-1.07,1.37.28-.36l1.68-2.18c3-3.92,6.08-7.84,9-11.82C73.41,296,82.15,281.87,87.62,266c11.27-32.63,5.31-67.78,7.16-101.48.21-3.76.56-7.48,1-11.22s-.49,2.79.12-.91c.12-.73.23-1.47.35-2.2.33-2,.72-4,1.16-6a102,102,0,0,1,3.12-11.26q.9-2.64,2-5.24c-1.18,2.89.3-.57.48-1,.49-1,1-2,1.52-3.06,3.17-6.18,1.81-14.7-4.76-18.18-6.08-3.21-14.79-1.83-18.17,4.77C64.71,143,68.48,179.4,68.15,214.9c0,4.16-.15,8.33-.38,12.48q-.15,2.82-.39,5.62c-.1,1.12-.2,2.24-.32,3.36,0,.37-.55,4.5-.3,2.67.29-2.11-.24,1.51-.24,1.54-.18,1.1-.37,2.2-.57,3.29q-.51,2.73-1.15,5.43a100.77,100.77,0,0,1-3.94,12.81c-.16.43-1.59,3.85-.33.93-.29.67-.59,1.34-.89,2-.9,2-1.87,3.94-2.89,5.88-1.85,3.52-3.87,6.95-6,10.3-4.48,7-9.48,13.72-14.56,20.33l-1,1.26-1,1.27c-1.82,2.35-3.64,4.69-5.44,7.05-2.48,3.23-4.94,6.47-7.33,9.76A130.44,130.44,0,0,0,9.18,340.53C3.28,352.67-.57,366,.07,379.65c1.18,25.18,15.76,46.86,35.11,62.15,21.58,17.05,47.38,28.28,74,34.78a226.18,226.18,0,0,0,41.07,6.15c18.14,1,36.3-.52,54.45-.39,4.23,0,8.46.14,12.68.4,2.51.16,5,.36,7.53.63l2.5.29c-2.85-.35,2.19.36,2.68.45a111,111,0,0,1,13.12,3.06q2.58.78,5.11,1.68c1,.35,2,.73,3,1.11.34.13,4.06,1.63,2.39.93-1.91-.79,1.32.59,1.36.61,1,.44,2,.88,2.93,1.34,1.61.76,3.22,1.55,4.81,2.35,3.84,1.94,7.62,4,11.36,6.1,6.88,3.86,13.65,7.9,20.54,11.74,14.54,8.12,30,15.65,46.57,18.57a117.92,117.92,0,0,0,49-1.92c30.56-7.54,57.75-24.68,85.73-38.45,3.26-1.6,6.54-3.18,9.85-4.69,1.73-.79,3.46-1.56,5.21-2.32.52-.23,3.65-1.74.63-.28.92-.44,1.91-.78,2.86-1.16A174.69,174.69,0,0,1,517,475.42c3.4-.85,6.83-1.58,10.28-2.16.16,0,4.44-.67,1.67-.3,1.3-.17,2.61-.31,3.91-.44q3.92-.39,7.85-.59a245.51,245.51,0,0,1,29,.49c36.45,2.45,74.94,9.41,110.22-4,16.77-6.36,31-16.36,41-31.41,9-13.44,13-30.25,9.53-46.15-3.86-17.59-18-30-32.88-38.74-13.7-8-28.09-14.67-41.59-23-6.72-4.17-13.28-8.6-19.56-13.4,2.61,2-1.53-1.25-2.19-1.79-1.59-1.3-3.16-2.64-4.7-4-2.78-2.47-5.48-5-8.06-7.71s-4.91-5.39-7.25-8.21c-2.15-2.58,1.61,2.3-.33-.42-.48-.67-1-1.32-1.44-2-1.22-1.73-2.39-3.49-3.49-5.3-1.87-3.05-3.46-6.21-5-9.42-.3-.61-1.19-2.23.18.49a25.59,25.59,0,0,1-1.07-2.72c-.68-1.84-1.3-3.7-1.84-5.59-.65-2.25-1.2-4.54-1.65-6.84-.15-.79-.28-1.59-.43-2.38-.74-3.89.21,2.7-.2-1.24a142.88,142.88,0,0,1-.78-14.48c0-9,.64-17.91,1.14-26.85,1-18.34,1.14-37.52-5.67-54.88-12.13-30.92-38.8-51.74-66.75-67.93C512.22,86,497,78.56,481.89,70.94L428,43.74c-35-17.66-70.09-37.3-109.5-42.45C281-3.62,244,6,209.85,21a459,459,0,0,0-48.62,25.28c-14.74,8.66-29.53,17.5-43.59,27.23-14.22,9.84-27.86,21.32-36.12,36.81-3.27,6.13-1.75,14.73,4.76,18.17C92.44,131.71,101,130.23,104.45,123.69Z"/><path class="cls-2" d="M161.8,161.19q7.51,3,14.95,6.1L173.58,166A678.93,678.93,0,0,1,242,199.46q16.53,9.28,32.5,19.49c10.73,6.87,21.08,14.36,32.11,20.75a146.1,146.1,0,0,0,64.79,19.1,171,171,0,0,0,63.6-8.64,178.17,178.17,0,0,0,58-32.07c1.91-1.6,3.79-3.24,5.62-4.93,5.13-4.72,5.14-14.07,0-18.78a13.55,13.55,0,0,0-18.78,0c-3.1,2.85-6.33,5.57-9.66,8.16l2.69-2.08a161.88,161.88,0,0,1-35.73,20.77l3.17-1.34a168.63,168.63,0,0,1-42.62,11.67l3.53-.47a152.61,152.61,0,0,1-40,.17l3.53.47a130.89,130.89,0,0,1-33.2-8.91l3.17,1.34c-10.71-4.54-20.54-10.75-30.2-17.18-10.12-6.75-20.29-13.41-30.7-19.71a671.22,671.22,0,0,0-64.49-34.34q-20-9.28-40.51-17.35c-3-1.19-7.57-.22-10.24,1.34a13.53,13.53,0,0,0-6.1,7.94c-.77,3.4-.61,7.21,1.34,10.23l2.08,2.69a13.26,13.26,0,0,0,5.86,3.41Z"/></g></g></g></svg>